<svg width="41" height="20" viewBox="0 0 41 20" fill="none" xmlns="http://www.w3.org/2000/svg">
<path d="M19.9932 19.9932C19.326 19.9945 18.6794 19.7622 18.1656 19.3364L1.03162 5.05811C0.448441 4.57339 0.0817041 3.87686 0.0120838 3.12175C-0.0575366 2.36663 0.175663 1.61479 0.660379 1.03162C1.1451 0.44844 1.84163 0.0817042 2.59674 0.0120838C3.35185 -0.0575366 4.10369 0.175661 4.68687 0.660378L19.9932 13.4538L35.2996 1.11729C35.5917 0.880078 35.9278 0.702936 36.2886 0.596044C36.6494 0.489151 37.0277 0.454615 37.4019 0.494421C37.7761 0.534227 38.1387 0.647587 38.4689 0.827991C38.7991 1.00839 39.0904 1.25228 39.3261 1.54564C39.5876 1.83926 39.7857 2.18373 39.9079 2.55746C40.0301 2.93119 40.0738 3.32613 40.0363 3.71754C39.9987 4.10895 39.8808 4.48839 39.6898 4.83208C39.4988 5.17578 39.2389 5.47633 38.9263 5.71491L21.7923 19.5078C21.2638 19.8662 20.6303 20.0371 19.9932 19.9932Z" fill="#252525"/>
</svg>
